<svg xmlns="http://www.w3.org/2000/svg"  viewBox="0 0 100 100" width="50px" height="50px"><circle cx="14" cy="30" r="2" fill="#78a0cf"/><circle cx="78" cy="14" r="1" fill="#f1bc19"/><circle cx="51" cy="51" r="37" fill="#cee1f4"/><circle cx="84" cy="16" r="4" fill="#f1bc19"/><circle cx="88" cy="25" r="2" fill="#78a0cf"/><circle cx="82" cy="77" r="2" fill="#fbcd59"/><circle cx="16" cy="64" r="4" fill="#fbcd59"/><circle cx="26" cy="88" r="2" fill="#78a0cf"/><circle cx="21.5" cy="42.5" r="2.5" fill="#fff"/><circle cx="22" cy="68" r="1" fill="#f1bc19"/><circle cx="81" cy="35" r="1" fill="#fff"/><g><rect width="42.6" height="41.6" x="29.7" y="26.7" fill="#edf7f5"/><path fill="#472b29" d="M71.6,27.4v40.2H30.4V27.4H71.6 M73,26H29v43h44V26L73,26z"/><polyline fill="#c0e5e4" points="32.5,42 32.5,48.49 32.5,59.731 32.5,65.5 33.194,65.5 55.028,65.5 57.5,65.5 57.5,60.729 57.5,42"/><polygon fill="#472b29" points="58,66 32,66 32,42 33,42 33,65 57,65 57,42 58,42"/><polyline fill="#c0e5e4" points="60.5,41 60.5,48.01 60.5,59.568 60.5,65.5 60.751,65.5 68.611,65.5 69.5,65.5 69.5,60.594 69.5,41"/><polygon fill="#472b29" points="70,66 60,66 60,41 61,41 61,65 69,65 69,41 70,41"/><path fill="#fff" d="M66.774,52.728c-0.593,0-1.073,0.465-1.073,1.038c0,0.573,0.48,1.038,1.073,1.038l0,0 c0.593,0,1.073-0.465,1.073-1.038C67.847,53.193,67.367,52.728,66.774,52.728z"/><path fill="#472b29" d="M66.774,55.179c-0.799,0-1.448-0.634-1.448-1.413s0.649-1.413,1.448-1.413s1.448,0.634,1.448,1.413 S67.573,55.179,66.774,55.179z M66.774,53.103c-0.385,0-0.698,0.297-0.698,0.663s0.313,0.663,0.698,0.663s0.698-0.297,0.698-0.663 S67.159,53.103,66.774,53.103z"/><path fill="#fdfcee" d="M42.332,52.072l2.027-2.15"/><path fill="#472b29" d="M42.332,52.447c-0.093,0-0.185-0.034-0.257-0.102c-0.151-0.142-0.158-0.379-0.016-0.53l2.027-2.15 c0.143-0.15,0.38-0.157,0.529-0.016c0.151,0.142,0.158,0.379,0.016,0.53l-2.027,2.15C42.531,52.408,42.431,52.447,42.332,52.447z"/><path fill="#fdfcee" d="M47.449,51.221l-2.674-1.418"/><path fill="#472b29" d="M47.449,51.596c-0.06,0-0.12-0.014-0.176-0.044l-2.674-1.418c-0.183-0.097-0.253-0.324-0.155-0.507 c0.098-0.184,0.326-0.252,0.507-0.155l2.674,1.418c0.183,0.097,0.253,0.324,0.155,0.507 C47.712,51.523,47.583,51.596,47.449,51.596z"/><path fill="#fdfcee" d="M44.945,49.748c0.033,0.181-0.099,0.352-0.294,0.382s-0.379-0.092-0.412-0.272 s0.099-0.352,0.294-0.382C44.728,49.445,44.912,49.567,44.945,49.748z"/><path fill="#472b29" d="M44.592,50.509c-0.35,0-0.661-0.244-0.722-0.586c-0.033-0.181,0.008-0.367,0.117-0.52 c0.112-0.159,0.29-0.268,0.487-0.298c0.4-0.061,0.771,0.197,0.839,0.576c0.033,0.183-0.009,0.368-0.117,0.521 c-0.113,0.159-0.291,0.268-0.488,0.298C44.67,50.506,44.63,50.509,44.592,50.509z M44.576,49.813 c0.004,0.02,0.015,0.031,0.02,0.033C44.594,49.845,44.576,49.814,44.576,49.813z"/><path fill="#cbc9bc" d="M52.57,54.109l-13.658,2.128l-0.623-3.441l13.657-2.127L52.57,54.109z"/><path fill="#472b29" d="M38.912,56.612c-0.179,0-0.336-0.127-0.369-0.308l-0.623-3.441c-0.018-0.1,0.005-0.202,0.063-0.284 c0.059-0.083,0.148-0.138,0.248-0.153l13.658-2.127c0.211-0.031,0.39,0.104,0.427,0.304l0.623,3.441 c0.018,0.1-0.005,0.202-0.063,0.284c-0.059,0.083-0.148,0.138-0.248,0.153L38.97,56.608C38.95,56.61,38.93,56.612,38.912,56.612z M38.726,53.107l0.489,2.703l12.917-2.012l-0.489-2.703L38.726,53.107z"/><path fill="#fff" d="M33.501,29.891h-3.495l-1.785,9.859c0,0-0.015,0.003-0.016,0.003c0,0.003,0-0.003,0,0l0,0l0,0 c-0.011,0.229-0.017,0.473-0.017,0.744l0,0c0,1.399,1.052,2.543,2.338,2.543h0.405c1.286,0,2.571-1.144,2.571-2.543l0,0 c0-0.269,0.009-0.516,0-0.744l0,0L33.501,29.891L33.501,29.891z"/><path fill="#472b29" d="M30.93,43.415h-0.405c-1.495,0-2.712-1.309-2.712-2.918c0-0.277,0.007-0.526,0.017-0.76 c0.003-0.055,0.017-0.107,0.041-0.154l1.767-9.758c0.032-0.178,0.188-0.308,0.369-0.308h3.495c0.207,0,0.375,0.168,0.375,0.375 v9.861c0.006,0.142,0.004,0.306,0.002,0.48l-0.002,0.264C33.877,42.051,32.5,43.415,30.93,43.415z M28.575,39.874 c-0.007,0.194-0.012,0.399-0.012,0.623c0,1.195,0.88,2.168,1.962,2.168h0.405c1.037,0,2.196-0.927,2.196-2.168l0.002-0.273 c0.002-0.161,0.004-0.312-0.002-0.457v-9.501H30.32l-1.729,9.55C28.587,39.836,28.582,39.855,28.575,39.874z"/><path fill="#ee3e54" d="M38.51,29.891h-5.009v9.689h0.017c-0.011,0.24-0.017,0.499-0.017,0.783 c0,1.472,1.107,2.677,2.461,2.677h0.322c1.305,0,2.226-1.144,2.226-2.543c0-0.269,0.009-0.516,0-0.744l0,0V29.891z"/><path fill="#472b29" d="M36.284,43.415h-0.322c-1.563,0-2.835-1.369-2.835-3.052c0-0.248,0.004-0.477,0.013-0.691 c-0.009-0.03-0.013-0.061-0.013-0.092v-9.688c0-0.207,0.168-0.375,0.375-0.375h5.009c0.207,0,0.375,0.168,0.375,0.375v9.861 c0.006,0.142,0.004,0.306,0.002,0.48l-0.002,0.264C38.885,42.16,37.767,43.415,36.284,43.415z M33.877,39.479 c0.012,0.038,0.018,0.077,0.017,0.117c-0.011,0.235-0.017,0.488-0.017,0.767c0,1.269,0.936,2.302,2.085,2.302h0.322 c1.056,0,1.852-0.932,1.852-2.168l0.002-0.273c0.002-0.161,0.004-0.312-0.002-0.457v-9.501h-4.259V39.479z"/><path fill="#fff" d="M43.519,29.891H38.51v9.689h0.017c-0.011,0.24-0.017,0.499-0.017,0.783 c0,1.472,1.107,2.677,2.461,2.677h0.322c1.305,0,2.226-1.144,2.226-2.543c0-0.269,0.009-0.516,0-0.744l0,0L43.519,29.891z"/><path fill="#472b29" d="M41.293,43.415H40.97c-1.563,0-2.835-1.369-2.835-3.052c0-0.248,0.004-0.477,0.013-0.691 c-0.009-0.03-0.013-0.061-0.013-0.092v-9.688c0-0.207,0.168-0.375,0.375-0.375h5.009c0.207,0,0.375,0.168,0.375,0.375v9.861 c0.006,0.142,0.004,0.306,0.002,0.48l-0.002,0.264C43.894,42.16,42.776,43.415,41.293,43.415z M38.885,39.479 c0.012,0.038,0.018,0.077,0.017,0.117c-0.011,0.235-0.017,0.488-0.017,0.767c0,1.269,0.936,2.302,2.085,2.302h0.322 c1.056,0,1.852-0.932,1.852-2.168l0.002-0.273c0.002-0.161,0.004-0.312-0.002-0.457v-9.501h-4.259V39.479z"/><path fill="#ee3e54" d="M48.528,29.891h-5.009v9.689h0.017c-0.011,0.24-0.017,0.499-0.017,0.783 c0,1.472,1.107,2.677,2.461,2.677h0.322c1.305,0,2.226-1.144,2.226-2.543c0-0.269,0.009-0.516,0-0.744l0,0V29.891z"/><path fill="#472b29" d="M46.302,43.415h-0.323c-1.563,0-2.835-1.369-2.835-3.052c0-0.248,0.004-0.477,0.013-0.691 c-0.009-0.03-0.013-0.061-0.013-0.092v-9.688c0-0.207,0.168-0.375,0.375-0.375h5.009c0.207,0,0.375,0.168,0.375,0.375v9.861 c0.006,0.142,0.004,0.306,0.002,0.48l-0.002,0.264C48.903,42.16,47.785,43.415,46.302,43.415z M43.894,39.479 c0.012,0.038,0.018,0.077,0.017,0.117c-0.011,0.235-0.017,0.488-0.017,0.767c0,1.269,0.936,2.302,2.085,2.302h0.323 c1.055,0,1.851-0.932,1.851-2.168l0.002-0.273c0.002-0.161,0.004-0.312-0.002-0.457v-9.501h-4.259L43.894,39.479z"/><path fill="#fff" d="M53.537,29.891h-5.009v9.689h0.017c-0.011,0.24-0.017,0.499-0.017,0.783 c0,1.472,1.107,2.677,2.461,2.677h0.322c1.305,0,2.226-1.144,2.226-2.543c0-0.269,0.009-0.516,0-0.744l0,0V29.891z"/><path fill="#472b29" d="M51.311,43.415h-0.323c-1.563,0-2.835-1.369-2.835-3.052c0-0.248,0.004-0.477,0.013-0.691 c-0.009-0.03-0.013-0.061-0.013-0.092v-9.688c0-0.207,0.168-0.375,0.375-0.375h5.009c0.207,0,0.375,0.168,0.375,0.375v9.861 c0.006,0.142,0.004,0.306,0.002,0.48l-0.002,0.264C53.912,42.16,52.794,43.415,51.311,43.415z M48.903,39.479 c0.012,0.038,0.018,0.077,0.017,0.117c-0.011,0.235-0.017,0.488-0.017,0.767c0,1.269,0.936,2.302,2.085,2.302h0.323 c1.055,0,1.851-0.932,1.851-2.168l0.002-0.273c0.002-0.161,0.004-0.312-0.002-0.457v-9.501h-4.259L48.903,39.479z"/><path fill="#ee3e54" d="M58.545,29.891h-5.009v9.689h0.017c-0.011,0.24-0.017,0.499-0.017,0.783 c0,1.472,1.107,2.677,2.461,2.677h0.322c1.305,0,2.226-1.163,2.226-2.561c0-0.269,0.009-0.497,0-0.726l0,0V29.891z"/><path fill="#472b29" d="M56.32,43.415h-0.322c-1.563,0-2.836-1.369-2.836-3.052c0-0.248,0.004-0.477,0.013-0.691 c-0.009-0.03-0.013-0.061-0.013-0.092v-9.688c0-0.207,0.168-0.375,0.375-0.375h5.009c0.207,0,0.375,0.168,0.375,0.375v9.861 c0.006,0.141,0.004,0.297,0.002,0.465l-0.002,0.261C58.92,42.125,57.778,43.415,56.32,43.415z M53.912,39.479 c0.012,0.038,0.018,0.077,0.017,0.117c-0.011,0.235-0.017,0.488-0.017,0.767c0,1.269,0.936,2.302,2.086,2.302h0.322 c1.055,0,1.851-0.94,1.851-2.186l0.002-0.271c0.002-0.154,0.004-0.298-0.002-0.441v-9.501h-4.259V39.479z"/><path fill="#fff" d="M63.554,29.891h-5.009v9.689h0.006c-0.004,0.163-0.006,0.331-0.006,0.511 c0,1.622,1.109,2.949,2.464,2.949h0.323c1.306,0,2.225-1.294,2.225-2.835c0-0.17,0.001-0.297-0.003-0.452l0,0 C63.554,39.753,63.554,29.891,63.554,29.891z"/><path fill="#472b29" d="M61.332,43.415H61.01c-1.565,0-2.839-1.491-2.839-3.324c0-0.158,0.002-0.308,0.005-0.454 c-0.003-0.019-0.005-0.038-0.005-0.057v-9.688c0-0.207,0.168-0.375,0.375-0.375h5.009c0.207,0,0.375,0.168,0.375,0.375 l0.003,10.313C63.932,42.004,62.79,43.415,61.332,43.415z M58.92,39.516c0.004,0.024,0.006,0.048,0.006,0.072 c-0.004,0.161-0.006,0.326-0.006,0.502c0,1.419,0.938,2.574,2.089,2.574h0.322c1.038,0,1.851-1.081,1.851-2.46l-0.003-0.445 v-9.493H58.92V39.516z"/><g><path fill="#ee3e54" d="M68.563,29.891h-5.009v9.689h0.017c-0.011,0.24-0.017,0.499-0.017,0.783 c0,1.472,1.107,2.677,2.461,2.677h0.322c1.305,0,2.226-1.144,2.226-2.543c0-0.269,0.009-0.516,0-0.744l0,0L68.563,29.891z"/><path fill="#472b29" d="M66.337,43.415h-0.322c-1.563,0-2.836-1.369-2.836-3.052c0-0.248,0.004-0.477,0.013-0.691 c-0.009-0.03-0.013-0.061-0.013-0.092v-9.688c0-0.207,0.168-0.375,0.375-0.375h5.009c0.207,0,0.375,0.168,0.375,0.375v9.861 c0.006,0.142,0.004,0.306,0.002,0.48l-0.002,0.264C68.938,42.16,67.82,43.415,66.337,43.415z M63.929,39.479 c0.012,0.038,0.018,0.077,0.017,0.117c-0.011,0.235-0.017,0.488-0.017,0.767c0,1.269,0.936,2.302,2.086,2.302h0.322 c1.055,0,1.851-0.932,1.851-2.168l0.002-0.273c0.002-0.161,0.004-0.312-0.002-0.457v-9.501h-4.259 C63.929,30.266,63.929,39.479,63.929,39.479z"/></g><g><path fill="#fff" d="M73.628,39.753L73.628,39.753l-1.597-9.862h-3.469v9.689h0.017 c-0.011,0.24-0.017,0.499-0.017,0.783l0,0c0,1.472,1.107,2.677,2.461,2.677h0.282c1.286,0,2.338-1.144,2.338-2.543l0,0 C73.643,40.227,73.638,39.982,73.628,39.753z"/><path fill="#472b29" d="M71.305,43.415h-0.281c-1.563,0-2.836-1.369-2.836-3.052c0-0.248,0.004-0.477,0.013-0.691 c-0.009-0.03-0.013-0.061-0.013-0.092v-9.688c0-0.207,0.168-0.375,0.375-0.375h3.469c0.184,0,0.341,0.133,0.37,0.315l1.597,9.861 c0.003,0.015,0.004,0.03,0.005,0.046c0.009,0.233,0.015,0.483,0.015,0.758C74.018,42.105,72.801,43.415,71.305,43.415z M68.938,39.479c0.012,0.038,0.018,0.077,0.017,0.117c-0.011,0.235-0.017,0.488-0.017,0.767c0,1.269,0.936,2.302,2.086,2.302 h0.281c1.082,0,1.963-0.973,1.963-2.168c0-0.256-0.005-0.489-0.014-0.707l-1.542-9.523h-2.774L68.938,39.479z"/></g><g><path fill="#472b29" d="M73.572,41H28.493c-0.207-0.354-0.375-0.522-0.375-0.729s0.168-0.375,0.375-0.271h45.079 c0.207-0.104,0.375,0.064,0.375,0.271S73.779,40.646,73.572,41z"/></g><g><rect width="44.6" height="2.6" x="28.7" y="67.7" fill="#bd977c"/><path fill="#472b29" d="M72.6,68.4v1.2H29.4v-1.2H72.6 M74,67H28v4h46V67L74,67z"/></g><g><path fill="#472b29" d="M39.257,56.308c-0.01,0-0.021-0.001-0.031-0.004c-0.066-0.017-0.107-0.085-0.09-0.152l0.931-3.625 c0.017-0.066,0.079-0.108,0.152-0.09c0.066,0.017,0.107,0.085,0.09,0.152l-0.931,3.625 C39.364,56.271,39.313,56.308,39.257,56.308z M40.514,56.125c-0.01,0-0.021-0.001-0.031-0.004 c-0.066-0.017-0.107-0.085-0.09-0.152l0.931-3.625c0.017-0.066,0.078-0.105,0.152-0.09c0.066,0.017,0.107,0.085,0.09,0.152 l-0.931,3.625C40.621,56.088,40.57,56.125,40.514,56.125z M41.771,55.943c-0.01,0-0.021-0.001-0.031-0.004 c-0.066-0.017-0.107-0.085-0.09-0.152l0.931-3.624c0.018-0.066,0.078-0.106,0.152-0.09c0.066,0.017,0.107,0.085,0.09,0.152 l-0.931,3.624C41.878,55.905,41.827,55.943,41.771,55.943z M43.028,55.76c-0.01,0-0.021-0.001-0.031-0.004 c-0.066-0.017-0.107-0.085-0.09-0.152l0.931-3.624c0.018-0.066,0.081-0.107,0.152-0.09c0.066,0.017,0.107,0.085,0.09,0.152 l-0.931,3.624C43.134,55.723,43.084,55.76,43.028,55.76z M44.285,55.578c-0.01,0-0.021-0.001-0.031-0.004 c-0.066-0.017-0.107-0.085-0.09-0.152l0.931-3.624c0.017-0.066,0.08-0.107,0.152-0.09c0.066,0.017,0.107,0.085,0.09,0.152 l-0.931,3.624C44.391,55.54,44.34,55.578,44.285,55.578z M45.542,55.396c-0.01,0-0.021-0.001-0.031-0.004 c-0.066-0.017-0.107-0.085-0.09-0.152l0.931-3.625c0.017-0.066,0.079-0.108,0.152-0.09c0.066,0.017,0.107,0.085,0.09,0.152 l-0.931,3.625C45.648,55.358,45.597,55.396,45.542,55.396z M46.798,55.213c-0.01,0-0.021-0.001-0.031-0.004 c-0.066-0.017-0.107-0.085-0.09-0.152l0.931-3.624c0.017-0.066,0.079-0.106,0.152-0.09c0.066,0.017,0.107,0.085,0.09,0.152 l-0.931,3.624C46.905,55.175,46.854,55.213,46.798,55.213z M48.055,54.848c-0.01,0-0.021-0.001-0.031-0.004 c-0.066-0.017-0.107-0.085-0.09-0.152l0.931-3.624c0.018-0.066,0.078-0.107,0.152-0.09c0.066,0.017,0.107,0.085,0.09,0.152 l-0.931,3.624C48.162,54.81,48.111,54.848,48.055,54.848z M49.374,54.792c-0.01,0-0.021-0.001-0.031-0.004 c-0.066-0.017-0.107-0.085-0.09-0.152l0.931-3.624c0.018-0.066,0.078-0.106,0.152-0.09c0.066,0.017,0.107,0.085,0.09,0.152 l-0.931,3.624C49.48,54.754,49.429,54.792,49.374,54.792z M50.569,54.666c-0.01,0-0.021-0.001-0.031-0.004 c-0.066-0.017-0.107-0.085-0.09-0.152l0.931-3.625c0.018-0.066,0.08-0.108,0.152-0.09c0.066,0.017,0.107,0.085,0.09,0.152 l-0.931,3.625C50.675,54.628,50.625,54.666,50.569,54.666z"/></g><g><path fill="#fbcd59" d="M31.059,62.416c-2.382-0.001-4.314,2.038-4.316,4.554c-0.001,2.516,1.929,4.557,4.312,4.558 c0.001,0,0.003,0,0.004,0c2.382,0.001,4.314-2.038,4.316-4.554c0.001-2.516-1.929-4.557-4.312-4.558 C31.062,62.416,31.061,62.416,31.059,62.416z"/><path fill="#472b29" d="M31,72c-2.756,0-5-2.243-5-5s2.243-5,5-5s5,2.243,5,5C36.001,69.757,33.758,72,31,72z M31,62.965 c-2.225,0-4.036,1.811-4.036,4.036s1.811,4.036,4.036,4.036c2.226,0,4.036-1.81,4.036-4.036S33.226,62.965,31,62.965z"/><path fill="#f1bc19" d="M31.067,64.125c-1.554-0.002-2.815,1.284-2.817,2.872c-0.001,1.588,1.257,2.876,2.812,2.878 c0.002,0,0.004,0,0.005,0c1.554,0.002,2.815-1.284,2.817-2.872c0.001-1.588-1.257-2.876-2.812-2.878 C31.071,64.125,31.069,64.125,31.067,64.125z"/><path fill="#472b29" d="M31,70c-1.654,0-3-1.346-3-3s1.346-3,3-3c1.655,0,3,1.346,3,3S32.654,70,31,70z M31,64.453 c-1.405,0-2.547,1.143-2.547,2.548s1.143,2.548,2.547,2.548c1.406,0,2.548-1.143,2.548-2.548S32.405,64.453,31,64.453z"/><g><path fill="#fbcd59" d="M36.059,66.416c-2.382-0.001-4.314,2.038-4.316,4.554c-0.001,2.516,1.929,4.557,4.312,4.558 c0.001,0,0.003,0,0.004,0c2.382,0.001,4.314-2.038,4.316-4.554c0.001-2.516-1.929-4.557-4.312-4.558 C36.062,66.416,36.061,66.416,36.059,66.416z"/><path fill="#472b29" d="M36,76c-2.756,0-5-2.243-5-5s2.243-5,5-5s5,2.243,5,5C41.001,73.757,38.758,76,36,76z M36,66.965 c-2.225,0-4.036,1.811-4.036,4.036s1.811,4.036,4.036,4.036c2.226,0,4.036-1.81,4.036-4.036S38.226,66.965,36,66.965z"/><path fill="#f1bc19" d="M36.067,68.125c-1.554-0.002-2.815,1.284-2.817,2.872c-0.001,1.588,1.257,2.876,2.812,2.878 c0.002,0,0.004,0,0.005,0c1.554,0.002,2.815-1.284,2.817-2.872c0.001-1.588-1.257-2.876-2.812-2.878 C36.071,68.125,36.069,68.125,36.067,68.125z"/><path fill="#472b29" d="M36,74c-1.654,0-3-1.346-3-3s1.346-3,3-3c1.655,0,3,1.346,3,3S37.654,74,36,74z M36,68.453 c-1.405,0-2.547,1.143-2.547,2.548s1.143,2.548,2.547,2.548c1.406,0,2.548-1.143,2.548-2.548S37.405,68.453,36,68.453z"/></g></g><g><rect width="43" height="1" x="29" y="29" fill="#472b29"/></g></g></svg>